<svg width="127" height="32" viewBox="0 0 127 32" fill="none" xmlns="http://www.w3.org/2000/svg">
<path d="M120.621 1.72713V1.10684H123.187V1.72713H122.285V4.0584H121.518V1.72713H120.621Z" fill="#C1C6C8"/>
<path d="M124.502 1.10684L124.847 2.39013C124.847 2.43632 124.878 2.49792 124.898 2.56979C124.918 2.64165 124.933 2.71865 124.948 2.79051C124.963 2.86237 124.993 2.96504 125.013 3.05743C125.028 2.96729 125.048 2.87815 125.073 2.79051C125.073 2.71865 125.103 2.64678 125.123 2.56979C125.143 2.49279 125.158 2.43632 125.173 2.39013L125.524 1.10684H126.487V4.03786H125.84V2.22587C125.84 2.14887 125.84 2.06674 125.84 1.97434C125.84 2.06161 125.8 2.1386 125.785 2.21047C125.77 2.28233 125.785 2.33366 125.745 2.39013C125.705 2.44659 125.715 2.49279 125.71 2.51845L125.294 4.0584H124.742L124.331 2.54412C124.331 2.54412 124.331 2.47226 124.296 2.41579L124.241 2.21047C124.241 2.1386 124.211 2.06161 124.191 1.97434C124.191 2.06674 124.191 2.14887 124.191 2.22587C124.191 2.30286 124.191 2.35419 124.191 2.42093C124.191 2.48766 124.191 2.53385 124.191 2.56465V4.03786H123.554V1.10684H124.502Z" fill="#C1C6C8"/>
<path fill-rule="evenodd" clip-rule="evenodd" d="M7.16394 17.6664H10.6701V21.7741C10.0306 22.333 8.94328 22.6784 7.81102 22.6784C4.45702 22.6784 2.45458 20.1952 2.45458 16.036C2.45458 12.0013 4.50738 9.49419 7.81102 9.49419C9.1902 9.49419 10.2396 9.95446 11.2138 10.9882L11.3199 11.1008L12.7245 9.5478L12.6308 9.4525C11.2804 8.0679 9.65047 7.36667 7.78611 7.36667C3.12874 7.36667 0 10.8712 0 16.0863C0 21.3826 2.97712 24.8065 7.58414 24.8065C9.61419 24.8065 11.5755 24.0744 12.8301 22.8479L12.8734 22.8057V15.6396H7.16394V17.6664Z" fill="#0C2340"/>
<path fill-rule="evenodd" clip-rule="evenodd" d="M18.4149 22.7751C18.2054 22.8211 18.1182 22.8211 17.9969 22.8211C17.7229 22.8211 17.5659 22.545 17.5659 22.0657V6.46265H15.2358V21.9157C15.2358 23.8581 15.9923 24.8019 17.548 24.8019C18.0754 24.8019 18.455 24.7369 18.7788 24.5902L18.8801 24.5441L18.5601 22.7421L18.4149 22.7751Z" fill="#0C2340"/>
<path fill-rule="evenodd" clip-rule="evenodd" d="M25.4266 11.7999C23.8562 11.7999 22.2274 12.3359 20.5862 13.3929L20.4719 13.4666L21.4401 15.1392L21.5673 15.0526C22.8182 14.1971 23.9743 13.7806 25.1022 13.7806C26.627 13.7806 27.4171 14.7131 27.4517 16.552C22.2285 17.1514 19.9976 18.5506 19.9976 21.2186C19.9976 23.3623 21.4877 24.8022 23.7062 24.8022C24.9609 24.8022 26.2198 24.2764 27.6548 23.149L27.8183 24.5027H29.7834V16.9289C29.7834 13.5733 28.277 11.7999 25.4266 11.7999ZM27.4534 18.1884V21.328C26.202 22.438 25.3085 22.8712 24.2797 22.8712C23.5416 22.8712 22.3027 22.6367 22.3027 21.0686C22.3027 19.515 23.8454 18.6503 27.4534 18.1884Z" fill="#0C2340"/>
<path fill-rule="evenodd" clip-rule="evenodd" d="M35.9961 17.2449L35.8082 17.1734C34.5135 16.6807 33.3953 16.2561 33.3953 15.2831C33.3953 14.5087 33.9406 13.6808 35.4714 13.6808C36.3746 13.6808 37.2015 14.003 38.1529 14.7248L38.2671 14.8109L39.4086 13.2898L39.3019 13.2027C38.6554 12.679 37.2951 11.7997 35.4465 11.7997C32.8701 11.7997 31.1395 13.24 31.1395 15.3838C31.1395 17.4886 33.0542 18.3582 34.8476 19.0075C36.1011 19.4813 37.5231 20.0168 37.5231 21.168C37.5231 22.2488 36.6605 22.9203 35.2721 22.9203C33.7484 22.9203 32.66 22.2055 31.7957 21.5064L31.6804 21.4128L30.488 23.0123L30.5931 23.0995C31.8835 24.1652 33.6049 24.8025 35.1974 24.8025C38.3619 24.8025 39.7784 22.9143 39.7784 21.0435C39.7784 18.6501 37.7684 17.9028 35.9961 17.2449Z" fill="#0C2340"/>
<path fill-rule="evenodd" clip-rule="evenodd" d="M45.4453 17.2449L45.2574 17.1734C43.9627 16.6807 42.8445 16.2561 42.8445 15.2831C42.8445 14.5087 43.3898 13.6808 44.9206 13.6808C45.8238 13.6808 46.6507 14.003 47.6021 14.7248L47.7163 14.8109L48.8578 13.2898L48.7511 13.2027C48.1046 12.679 46.7444 11.7997 44.8957 11.7997C42.3193 11.7997 40.5887 13.24 40.5887 15.3838C40.5887 17.4886 42.5034 18.3582 44.2968 19.0075C45.5509 19.4813 46.9723 20.0168 46.9723 21.168C46.9723 22.2488 46.1097 22.9203 44.7213 22.9203C43.1976 22.9203 42.1092 22.2055 41.245 21.5064L41.1296 21.4128L39.9373 23.0123L40.0423 23.0995C41.3327 24.1652 43.0541 24.8025 44.6466 24.8025C47.8111 24.8025 49.2276 22.9143 49.2276 21.0435C49.2276 18.6501 47.2176 17.9028 45.4453 17.2449Z" fill="#0C2340"/>
<path fill-rule="evenodd" clip-rule="evenodd" d="M55.4672 11.7999C52.7624 11.7999 49.8882 14.0871 49.8882 18.3265C49.8882 22.1391 52.3363 24.8022 55.8413 24.8022C57.2481 24.8022 58.578 24.3874 59.908 23.5329L60.019 23.462L59.1607 21.8624L59.0307 21.9453C58.0431 22.5772 57.109 22.8712 56.0904 22.8712C53.8774 22.8712 52.3991 21.3512 52.2041 18.8923H60.3514L60.3709 18.7732C60.4202 18.4765 60.4473 18.0698 60.4473 17.6274C60.4473 13.9788 58.5856 11.7999 55.4672 11.7999ZM58.3647 17.2603H52.1863C52.4581 15.1598 53.8108 13.7065 55.517 13.7065C57.3175 13.7065 58.3252 14.9665 58.3647 17.2603Z" fill="#0C2340"/>
<path fill-rule="evenodd" clip-rule="evenodd" d="M66.2637 17.2449L66.0752 17.1734C64.7811 16.6807 63.6629 16.2561 63.6629 15.2831C63.6629 14.5087 64.2082 13.6808 65.739 13.6808C66.6422 13.6808 67.469 14.003 68.4199 14.7248L68.5341 14.8109L69.6762 13.2898L69.5689 13.2027C68.9229 12.679 67.5622 11.7997 65.7135 11.7997C63.1376 11.7997 61.407 13.24 61.407 15.3838C61.407 17.4886 63.3212 18.3582 65.1152 19.0075C66.3693 19.4813 67.7907 20.0168 67.7907 21.168C67.7907 22.2488 66.9281 22.9203 65.5397 22.9203C64.0159 22.9203 62.9275 22.2055 62.0633 21.5064L61.948 21.4128L60.7556 23.0123L60.8601 23.0995C62.151 24.1652 63.8724 24.8025 65.4644 24.8025C68.6294 24.8025 70.0455 22.9143 70.0455 21.0435C70.0455 18.6501 68.0354 17.9028 66.2637 17.2449Z" fill="#0C2340"/>
<path fill-rule="evenodd" clip-rule="evenodd" d="M81.4288 17.6526C81.4288 20.9996 80.1682 22.6961 77.6816 22.6961C75.2617 22.6961 74.0342 20.9996 74.0342 17.6526V7.85974H71.6543V17.6023C71.6543 20.8875 72.6999 24.8025 77.6816 24.8025C82.6639 24.8025 83.7095 20.8875 83.7095 17.6023V7.85974H81.4288V17.6526Z" fill="white"/>
<path fill-rule="evenodd" clip-rule="evenodd" d="M81.4288 17.6526C81.4288 20.9996 80.1682 22.6961 77.6816 22.6961C75.2617 22.6961 74.0342 20.9996 74.0342 17.6526V7.85974H71.6543V17.6023C71.6543 20.8875 72.6999 24.8025 77.6816 24.8025C82.6639 24.8025 83.7095 20.8875 83.7095 17.6023V7.85974H81.4288V17.6526Z" fill="#0067B9" fill-opacity="0.95"/>
<path fill-rule="evenodd" clip-rule="evenodd" d="M92.6482 15.5014L90.3046 14.504L90.2477 14.4791C88.9817 13.9338 87.6729 13.3707 87.6729 11.9178C87.6729 10.5495 88.8209 9.66578 90.5975 9.66578C91.9442 9.66578 93.1615 10.1732 94.2142 11.1727L94.3263 11.2789L95.6004 9.71559L95.5132 9.62408C94.2564 8.31313 92.4646 7.56046 90.5975 7.56046C87.5733 7.56046 85.2931 9.48763 85.2931 12.0424C85.2931 13.9901 86.4059 15.4115 88.6953 16.3873L91.0367 17.4091L91.0811 17.4291C92.5994 18.1136 93.696 18.6085 93.696 20.1713C93.696 21.7286 92.4419 22.6962 90.4226 22.6962C88.8393 22.6962 87.2316 21.9668 86.0127 20.6949L85.9039 20.5817L84.4695 22.2463L84.5594 22.3399C86.094 23.9281 88.1587 24.8021 90.3728 24.8021C93.7452 24.8021 96.1013 22.8257 96.1013 19.9958C96.1013 17.356 94.356 16.2427 92.6482 15.5014Z" fill="white"/>
<path fill-rule="evenodd" clip-rule="evenodd" d="M92.6482 15.5014L90.3046 14.504L90.2477 14.4791C88.9817 13.9338 87.6729 13.3707 87.6729 11.9178C87.6729 10.5495 88.8209 9.66578 90.5975 9.66578C91.9442 9.66578 93.1615 10.1732 94.2142 11.1727L94.3263 11.2789L95.6004 9.71559L95.5132 9.62408C94.2564 8.31313 92.4646 7.56046 90.5975 7.56046C87.5733 7.56046 85.2931 9.48763 85.2931 12.0424C85.2931 13.9901 86.4059 15.4115 88.6953 16.3873L91.0367 17.4091L91.0811 17.4291C92.5994 18.1136 93.696 18.6085 93.696 20.1713C93.696 21.7286 92.4419 22.6962 90.4226 22.6962C88.8393 22.6962 87.2316 21.9668 86.0127 20.6949L85.9039 20.5817L84.4695 22.2463L84.5594 22.3399C86.094 23.9281 88.1587 24.8021 90.3728 24.8021C93.7452 24.8021 96.1013 22.8257 96.1013 19.9958C96.1013 17.356 94.356 16.2427 92.6482 15.5014Z" fill="#0067B9" fill-opacity="0.95"/>
<path fill-rule="evenodd" clip-rule="evenodd" d="M104.361 7.85947H101.812L96.1797 24.5028H98.6029L100.174 19.5156H105.924L107.495 24.5028H109.993L104.361 7.85947ZM105.311 17.5592H100.788L101.527 15.2514C102.044 13.6107 102.534 11.951 103.062 10.0531C103.591 11.9564 104.08 13.6166 104.596 15.2514L105.311 17.5592Z" fill="white"/>
<path fill-rule="evenodd" clip-rule="evenodd" d="M104.361 7.85947H101.812L96.1797 24.5028H98.6029L100.174 19.5156H105.924L107.495 24.5028H109.993L104.361 7.85947ZM105.311 17.5592H100.788L101.527 15.2514C102.044 13.6107 102.534 11.951 103.062 10.0531C103.591 11.9564 104.08 13.6166 104.596 15.2514L105.311 17.5592Z" fill="#0067B9" fill-opacity="0.95"/>
<path fill-rule="evenodd" clip-rule="evenodd" d="M70.0443 30.7378C70.3843 30.7378 70.6432 31.0047 70.6432 31.3686C70.6432 31.7331 70.3843 32 70.0443 32C69.7042 32 69.4373 31.7331 69.4373 31.3686C69.4373 31.0047 69.7042 30.7378 70.0443 30.7378Z" fill="#0C2340"/>
<path fill-rule="evenodd" clip-rule="evenodd" d="M73.2746 27.8309C73.7847 27.8309 74.1734 28.034 74.4404 28.2923L73.9953 28.8825C73.7847 28.6968 73.5746 28.5912 73.3238 28.5912C72.6838 28.5912 72.2382 29.1181 72.2382 29.9189C72.2382 30.7122 72.6762 31.2391 73.2989 31.2391C73.6233 31.2391 73.8978 31.0772 74.1171 30.8996L74.5054 31.4903C74.1328 31.8223 73.6552 31.9999 73.202 31.9999C72.1169 31.9999 71.283 31.2391 71.283 29.9189C71.283 28.5912 72.2143 27.8309 73.2746 27.8309Z" fill="#0C2340"/>
<path fill-rule="evenodd" clip-rule="evenodd" d="M76.5543 27.8309C77.5501 27.8309 78.449 28.5912 78.449 29.9189C78.449 31.2391 77.5501 31.9999 76.5543 31.9999C75.5661 31.9999 74.6677 31.2391 74.6677 29.9189C74.6677 28.5912 75.5661 27.8309 76.5543 27.8309ZM76.5543 31.2391C77.1369 31.2391 77.4932 30.7122 77.4932 29.9189C77.4932 29.1181 77.1369 28.5912 76.5543 28.5912C75.9711 28.5912 75.6229 29.1181 75.6229 29.9189C75.6229 30.7122 75.9711 31.2391 76.5543 31.2391Z" fill="#0C2340"/>
<path fill-rule="evenodd" clip-rule="evenodd" d="M79.21 27.9282H79.98L80.0439 28.4708H80.0769C80.4088 28.1145 80.7976 27.8308 81.2915 27.8308C81.8736 27.8308 82.2055 28.0972 82.3918 28.5434C82.7724 28.1383 83.1693 27.8308 83.6708 27.8308C84.5128 27.8308 84.9021 28.4053 84.9021 29.4092V31.9033H83.9626V29.5311C83.9626 28.8753 83.7682 28.6327 83.3551 28.6327C83.1044 28.6327 82.8298 28.7946 82.5217 29.1266V31.9033H81.5904V29.5311C81.5904 28.8753 81.396 28.6327 80.9752 28.6327C80.7326 28.6327 80.4489 28.7946 80.1419 29.1266V31.9033H79.21V27.9282Z" fill="#0C2340"/>
<path fill-rule="evenodd" clip-rule="evenodd" d="M87.5564 31.9033H104.352H105.284H105.363H106.059C106.144 31.9033 106.225 31.8876 106.303 31.8654C107.324 31.7912 108.908 31.5741 110.117 30.9308C111.392 30.2534 113.211 29.0117 114.296 26.0617C114.754 24.8157 115.341 22.777 115.84 20.957L115.841 20.9581C115.842 20.9532 115.849 20.9235 115.861 20.8774C116.365 19.0347 116.858 17.0724 117.282 15.3201C117.807 13.2938 118.359 11.2118 118.709 9.99561C119.781 6.28964 118.034 5.54887 115.391 4.42582L115.164 4.33052C114.52 4.05598 113.632 3.75708 112.644 3.4598L112.642 3.45547C112.584 3.43922 112.526 3.42298 112.469 3.40727C111.88 3.23075 111.259 3.05639 110.633 2.8869C108.733 2.36057 106.832 1.88514 104.921 1.47307C104.655 1.41134 104.481 1.37235 104.43 1.36043L104.422 1.36585C101.173 0.685736 97.8875 0.203267 94.5108 0.0581467C88.335 -0.207184 82.1203 0.435567 76.1358 1.98586C74.977 2.28639 73.8269 2.6102 72.6859 2.97787C70.4501 3.69751 68.2625 4.57094 66.1225 5.54238C65.5696 5.79417 64.9935 6.05409 64.4417 6.32916C64.1493 6.47591 63.8596 6.62699 63.5753 6.78781C63.3533 6.91343 62.9775 7.0461 62.8838 7.30114C62.8357 7.43164 62.847 7.57947 62.9163 7.69914L62.9553 7.76683C63.1416 8.08901 63.4681 8.00292 63.7356 7.86321C64.1293 7.6569 64.5289 7.45872 64.9307 7.26703C66.422 6.55551 67.963 5.93063 69.5074 5.34257C70.7387 4.87363 71.9863 4.44531 73.2475 4.0641C74.7658 3.60546 76.3036 3.21288 77.8545 2.88744C79.6625 2.50731 81.489 2.22032 83.3252 2.01943C85.4262 1.79146 87.5407 1.67883 89.6536 1.67288C92.054 1.66746 94.4528 1.79958 96.8392 2.05517C99.5401 2.34595 102.223 2.79376 104.875 3.37695C107.879 4.03811 110.844 4.87201 113.761 5.84724C113.903 5.89543 114.211 6.0086 114.47 6.10445L114.647 6.18026C117.267 7.29194 117.482 7.38399 116.879 9.46657C116.748 9.92305 116.546 10.6795 116.313 11.5741L116.302 11.5827C116.3 11.5871 116.275 11.6991 116.23 11.893C115.451 14.9026 114.388 19.1885 114.363 19.2876C113.792 21.3745 113.086 23.8302 112.507 25.4032C111.658 27.7165 110.306 28.6727 109.224 29.2489C107.752 30.0308 105.308 30.0888 105.284 30.0888H104.352H87.5564V31.9033Z" fill="#E56A54"/>
</svg>
